<svg width="81" height="144" viewBox="0 0 81 144" fill="none" xmlns="http://www.w3.org/2000/svg">
<path d="M43.8594 28.8906C40.8125 27.7188 37.8242 27.1328 34.8945 27.1328C32.0039 27.1328 30.0312 27.2305 28.9766 27.4258V22.7383H34.7188C47.2188 22.7383 57.043 26.6055 64.1914 34.3398C71.1445 41.8398 74.6211 51.8398 74.6211 64.3398C74.6211 76.8789 71.1445 86.8984 64.1914 94.3984C57.043 102.133 47.2188 106 34.7188 106H28.9766V101.254C30.5391 101.449 32.6484 101.547 35.3047 101.547C37.9609 101.547 40.8125 100.961 43.8594 99.7891C46.9453 98.5781 49.543 96.5469 51.6523 93.6953C55.9492 87.8359 58.0977 78.0508 58.0977 64.3398C58.0977 44.418 53.3516 32.6016 43.8594 28.8906ZM24.1133 106H0.382812V102.543C1.4375 102.074 2.45312 101.703 3.42969 101.43C4.44531 101.156 5.34375 100.805 6.125 100.375C7.76562 99.4375 8.58594 97.7188 8.58594 95.2188V33.5195C8.58594 31.0195 7.76562 29.3008 6.125 28.3633C5.34375 27.9336 4.44531 27.582 3.42969 27.3086C2.45312 27.0352 1.4375 26.6641 0.382812 26.1953V22.7383H24.1133V106Z" fill="#2E1AAA"/>
<path d="M53.6846 129.118C57.3467 128.581 60.2764 127.238 62.4736 125.09C64.7197 122.893 65.8428 120.354 65.8428 117.473C65.8428 114.592 65.2568 112.37 64.085 110.808C62.9619 109.196 61.4482 107.829 59.5439 106.706C57.6885 105.534 55.5645 104.509 53.1719 103.63C50.7793 102.702 48.3379 101.799 45.8477 100.92C43.3574 99.9922 40.916 98.9668 38.5234 97.8438C36.1309 96.7207 33.9824 95.3779 32.0781 93.8154C27.9277 90.3486 25.8525 85.8076 25.8525 80.1924C25.8525 75.1631 27.7568 70.6953 31.5654 66.7891C35.8623 62.2969 41.4775 59.7822 48.4111 59.2451V65.0312C45.5791 65.5684 43.3086 66.7402 41.5996 68.5469C39.9395 70.3535 39.1094 72.4775 39.1094 74.9189C39.1094 77.3604 39.6953 79.3135 40.8672 80.7783C42.0391 82.1943 43.5771 83.4395 45.4814 84.5137C47.4346 85.5391 49.6318 86.4912 52.0732 87.3701C54.5635 88.2002 57.1025 89.1035 59.6904 90.0801C62.2783 91.0078 64.793 92.0576 67.2344 93.2295C69.7246 94.3525 71.9219 95.7686 73.8262 97.4775C78.123 101.286 80.2715 106.218 80.2715 112.272C80.2715 117.595 78.2695 122.355 74.2656 126.555C69.4805 131.584 62.6201 134.367 53.6846 134.904V129.118ZM58.665 76.457C58.665 72.7949 60.0078 70.4512 62.6934 69.4258C61.1797 66.7402 58.4453 65.2021 54.4902 64.8115V59.2451C60.9355 59.7334 66.3066 61.5156 70.6035 64.5918C74.8516 67.668 76.9756 71.3789 76.9756 75.7246C76.9756 78.3613 76.1455 80.4365 74.4854 81.9502C72.874 83.4639 70.6523 84.2207 67.8203 84.2207C65.0371 84.2207 62.8154 83.5127 61.1553 82.0967C59.4951 80.6807 58.665 78.8008 58.665 76.457ZM43.4307 117.692C43.4307 121.354 42.0879 123.698 39.4023 124.724C40.916 127.409 43.6504 128.947 47.6055 129.338V134.904C41.3066 134.514 35.9355 132.731 31.4922 129.558C27.2441 126.481 25.1201 122.771 25.1201 118.425C25.1201 115.788 25.9258 113.713 27.5371 112.199C29.1973 110.686 31.4189 109.929 34.2021 109.929C37.0342 109.929 39.2803 110.637 40.9404 112.053C42.6006 113.469 43.4307 115.349 43.4307 117.692Z" fill="#FF9900"/>
</svg>
