<svg width="153" height="144" viewBox="0 0 153 144" fill="none" xmlns="http://www.w3.org/2000/svg">
<path d="M40.3828 23.7422C37.8438 22.7656 35.3535 22.2773 32.9121 22.2773C30.5033 22.2773 28.8594 22.3587 27.9805 22.5215V18.6152H32.7656C43.1823 18.6152 51.3691 21.8379 57.3262 28.2832C63.1204 34.5332 66.0176 42.8665 66.0176 53.2832C66.0176 63.7324 63.1204 72.082 57.3262 78.332C51.3691 84.7773 43.1823 88 32.7656 88H27.9805V84.0449C29.2826 84.2077 31.0404 84.2891 33.2539 84.2891C35.4674 84.2891 37.8438 83.8008 40.3828 82.8242C42.9544 81.8151 45.1191 80.1224 46.877 77.7461C50.4577 72.8633 52.248 64.709 52.248 53.2832C52.248 36.6816 48.293 26.8346 40.3828 23.7422ZM23.9277 88H4.15234V85.1191C5.03125 84.7285 5.8776 84.4193 6.69141 84.1914C7.53776 83.9635 8.28646 83.6706 8.9375 83.3125C10.3047 82.5312 10.9883 81.099 10.9883 79.0156V27.5996C10.9883 25.5163 10.3047 24.084 8.9375 23.3027C8.28646 22.9447 7.53776 22.6517 6.69141 22.4238C5.8776 22.196 5.03125 21.8867 4.15234 21.4961V18.6152H23.9277V88Z" fill="#2E1AAA"/>
<path d="M50.8477 102.895C53.7773 102.465 56.1211 101.391 57.8789 99.6719C59.6758 97.9141 60.5742 95.8828 60.5742 93.5781C60.5742 91.2734 60.1055 89.4961 59.168 88.2461C58.2695 86.957 57.0586 85.8633 55.5352 84.9648C54.0508 84.0273 52.3516 83.207 50.4375 82.5039C48.5234 81.7617 46.5703 81.0391 44.5781 80.3359C42.5859 79.5938 40.6328 78.7734 38.7188 77.875C36.8047 76.9766 35.0859 75.9023 33.5625 74.6523C30.2422 71.8789 28.582 68.2461 28.582 63.7539C28.582 59.7305 30.1055 56.1562 33.1523 53.0312C36.5898 49.4375 41.082 47.4258 46.6289 46.9961V51.625C44.3633 52.0547 42.5469 52.9922 41.1797 54.4375C39.8516 55.8828 39.1875 57.582 39.1875 59.5352C39.1875 61.4883 39.6562 63.0508 40.5938 64.2227C41.5312 65.3555 42.7617 66.3516 44.2852 67.2109C45.8477 68.0312 47.6055 68.793 49.5586 69.4961C51.5508 70.1602 53.582 70.8828 55.6523 71.6641C57.7227 72.4062 59.7344 73.2461 61.6875 74.1836C63.6797 75.082 65.4375 76.2148 66.9609 77.582C70.3984 80.6289 72.1172 84.5742 72.1172 89.418C72.1172 93.6758 70.5156 97.4844 67.3125 100.844C63.4844 104.867 57.9961 107.094 50.8477 107.523V102.895ZM54.832 60.7656C54.832 57.8359 55.9062 55.9609 58.0547 55.1406C56.8438 52.9922 54.6562 51.7617 51.4922 51.4492V46.9961C56.6484 47.3867 60.9453 48.8125 64.3828 51.2734C67.7812 53.7344 69.4805 56.7031 69.4805 60.1797C69.4805 62.2891 68.8164 63.9492 67.4883 65.1602C66.1992 66.3711 64.4219 66.9766 62.1562 66.9766C59.9297 66.9766 58.1523 66.4102 56.8242 65.2773C55.4961 64.1445 54.832 62.6406 54.832 60.7656ZM42.6445 93.7539C42.6445 96.6836 41.5703 98.5586 39.4219 99.3789C40.6328 101.527 42.8203 102.758 45.9844 103.07V107.523C40.9453 107.211 36.6484 105.785 33.0938 103.246C29.6953 100.785 27.9961 97.8164 27.9961 94.3398C27.9961 92.2305 28.6406 90.5703 29.9297 89.3594C31.2578 88.1484 33.0352 87.543 35.2617 87.543C37.5273 87.543 39.3242 88.1094 40.6523 89.2422C41.9805 90.375 42.6445 91.8789 42.6445 93.7539Z" fill="#FF9900"/>
<path d="M90.4102 41.1484C89.9023 40.9531 89.4043 40.8555 88.916 40.8555C88.4342 40.8555 88.1055 40.8717 87.9297 40.9043V40.123H88.8867C90.9701 40.123 92.6074 40.7676 93.7988 42.0566C94.9577 43.3066 95.5371 44.9733 95.5371 47.0566C95.5371 49.1465 94.9577 50.8164 93.7988 52.0664C92.6074 53.3555 90.9701 54 88.8867 54H87.9297V53.209C88.1901 53.2415 88.5417 53.2578 88.9844 53.2578C89.4271 53.2578 89.9023 53.1602 90.4102 52.9648C90.9245 52.763 91.3574 52.4245 91.709 51.9492C92.4251 50.9727 92.7832 49.3418 92.7832 47.0566C92.7832 43.7363 91.9922 41.7669 90.4102 41.1484ZM87.1191 54H83.1641V53.4238C83.3398 53.3457 83.5091 53.2839 83.6719 53.2383C83.8411 53.1927 83.9909 53.1341 84.1211 53.0625C84.3945 52.9062 84.5312 52.6198 84.5312 52.2031V41.9199C84.5312 41.5033 84.3945 41.2168 84.1211 41.0605C83.9909 40.9889 83.8411 40.9303 83.6719 40.8848C83.5091 40.8392 83.3398 40.7773 83.1641 40.6992V40.123H87.1191V54ZM103.555 48.1797C103.555 46.3047 103.086 45.25 102.148 45.0156V44.1758C103.366 44.2865 104.303 44.7975 104.961 45.709C105.579 46.5618 105.889 47.6719 105.889 49.0391H100.361V48.1797H103.555ZM102.188 53.4043C103.32 53.3522 104.124 52.8184 104.6 51.8027C104.736 51.5098 104.854 51.2103 104.951 50.9043L105.791 51.2168C105.426 52.5775 104.681 53.4922 103.555 53.9609C103.158 54.1237 102.702 54.2214 102.188 54.2539V53.4043ZM99.541 48.5996C99.541 51.3991 100.153 52.9746 101.377 53.3262V54.2246C100.101 54.0814 99.0885 53.5508 98.3398 52.6328C97.5911 51.7279 97.2168 50.5918 97.2168 49.2246C97.2168 47.7858 97.5911 46.6042 98.3398 45.6797C99.0951 44.7487 100.094 44.2441 101.338 44.166V44.9766C100.14 45.1198 99.541 46.3275 99.541 48.5996ZM113.877 45.7383C113.695 45.2891 113.288 45.0319 112.656 44.9668V44.1758C113.522 44.2214 114.212 44.5078 114.727 45.0352C115.176 45.4844 115.4 46.002 115.4 46.5879C115.4 47.1868 115.169 47.5938 114.707 47.8086C114.551 47.8802 114.339 47.916 114.072 47.916C113.805 47.916 113.564 47.8184 113.35 47.623C113.141 47.4212 113.037 47.1901 113.037 46.9297C113.037 46.6693 113.066 46.4772 113.125 46.3535C113.184 46.2298 113.255 46.1289 113.34 46.0508C113.424 45.9727 113.516 45.9108 113.613 45.8652C113.711 45.8197 113.799 45.7773 113.877 45.7383ZM112.656 53.375C113.451 53.2578 114.036 52.7565 114.414 51.8711C114.525 51.6237 114.622 51.373 114.707 51.1191L115.518 51.3633C115.153 52.6198 114.557 53.4596 113.73 53.8828C113.424 54.0456 113.066 54.1562 112.656 54.2148V53.375ZM109.805 49.1953C109.805 51.7474 110.485 53.1406 111.846 53.375V54.2637C110.615 54.2376 109.59 53.7982 108.77 52.9453C107.904 52.0273 107.471 50.8132 107.471 49.3027C107.471 47.9681 107.874 46.8092 108.682 45.8262C109.515 44.8105 110.57 44.2572 111.846 44.166V45.0254C110.869 45.2533 110.238 46.0801 109.951 47.5059C109.854 47.9941 109.805 48.5573 109.805 49.1953ZM120.947 54.2441C119.834 54.1335 118.919 53.6615 118.203 52.8281C117.402 51.8971 117.002 50.696 117.002 49.2246C117.002 47.7402 117.402 46.5326 118.203 45.6016C118.926 44.7617 119.84 44.2865 120.947 44.1758V44.9375C120.374 45.0482 119.954 45.4225 119.688 46.0605C119.401 46.7637 119.258 47.8184 119.258 49.2246C119.258 51.2884 119.577 52.5938 120.215 53.1406C120.43 53.3164 120.674 53.4303 120.947 53.4824V54.2441ZM121.758 53.4922C122.91 53.2969 123.486 51.8743 123.486 49.2246C123.486 47.1217 123.148 45.7969 122.471 45.25C122.256 45.0807 122.018 44.9733 121.758 44.9277V44.166C122.865 44.2507 123.789 44.7161 124.531 45.5625C125.352 46.5065 125.762 47.7272 125.762 49.2246C125.762 50.7155 125.358 51.9264 124.551 52.8574C123.809 53.7038 122.878 54.1693 121.758 54.2539V53.4922ZM133.623 41.6758C133.623 41.3242 133.493 41.0898 133.232 40.9727C133.115 40.9141 132.982 40.8685 132.832 40.8359C132.682 40.7969 132.533 40.7383 132.383 40.6602V40.0645H135.703V52.2227C135.703 52.7435 135.964 53.0885 136.484 53.2578C136.615 53.2969 136.738 53.3522 136.855 53.4238V54H133.623V41.6758ZM131.719 45.123C130.326 45.123 129.629 46.5065 129.629 49.2734C129.629 52.0404 130.286 53.4238 131.602 53.4238C131.992 53.4238 132.396 53.1829 132.812 52.7012V53.8633C132.383 54.1302 131.875 54.2637 131.289 54.2637C130.703 54.2637 130.173 54.153 129.697 53.9316C129.222 53.7103 128.809 53.388 128.457 52.9648C127.682 52.0339 127.295 50.8132 127.295 49.3027C127.295 47.7923 127.676 46.5586 128.438 45.6016C129.206 44.638 130.173 44.1562 131.338 44.1562C131.852 44.1562 132.344 44.2799 132.812 44.5273V45.4551C132.5 45.2337 132.135 45.123 131.719 45.123ZM144.277 48.1797C144.277 46.3047 143.809 45.25 142.871 45.0156V44.1758C144.089 44.2865 145.026 44.7975 145.684 45.709C146.302 46.5618 146.611 47.6719 146.611 49.0391H141.084V48.1797H144.277ZM142.91 53.4043C144.043 53.3522 144.847 52.8184 145.322 51.8027C145.459 51.5098 145.576 51.2103 145.674 50.9043L146.514 51.2168C146.149 52.5775 145.404 53.4922 144.277 53.9609C143.88 54.1237 143.424 54.2214 142.91 54.2539V53.4043ZM140.264 48.5996C140.264 51.3991 140.876 52.9746 142.1 53.3262V54.2246C140.824 54.0814 139.811 53.5508 139.062 52.6328C138.314 51.7279 137.939 50.5918 137.939 49.2246C137.939 47.7858 138.314 46.6042 139.062 45.6797C139.818 44.7487 140.817 44.2441 142.061 44.166V44.9766C140.863 45.1198 140.264 46.3275 140.264 48.5996ZM97.2363 63.8496C97.7181 63.8952 98.1283 64.0059 98.4668 64.1816C98.8118 64.3574 99.0462 64.4811 99.1699 64.5527C99.3001 64.6243 99.4076 64.6602 99.4922 64.6602C99.5833 64.6602 99.6582 64.6406 99.7168 64.6016C99.7754 64.5625 99.8275 64.5169 99.873 64.4648C99.9186 64.4128 99.9577 64.3574 99.9902 64.2988C100.023 64.2337 100.055 64.1751 100.088 64.123H100.986V68.7031H100.283C100.14 68.5534 99.9772 68.2279 99.7949 67.7266C99.6126 67.2188 99.4564 66.8151 99.3262 66.5156C99.2025 66.2161 99.0462 65.9362 98.8574 65.6758C98.4408 65.0964 97.9004 64.7546 97.2363 64.6504V63.8496ZM95.2539 77.9512C94.8698 77.7754 94.5996 77.6517 94.4434 77.5801C94.2871 77.502 94.1243 77.4629 93.9551 77.4629C93.7923 77.4629 93.61 77.6419 93.4082 78H92.5V73.1758H93.1738C93.3171 73.3255 93.444 73.5306 93.5547 73.791C93.6719 74.0514 93.7923 74.3346 93.916 74.6406C94.0462 74.9401 94.1862 75.2493 94.3359 75.5684C94.4857 75.8874 94.668 76.1836 94.8828 76.457C95.3646 77.0625 95.9766 77.4043 96.7188 77.4824V78.2832C96.1328 78.2311 95.6445 78.1204 95.2539 77.9512ZM97.5293 77.4727C98.2324 77.388 98.776 77.1016 99.1602 76.6133C99.4987 76.1771 99.668 75.679 99.668 75.1191C99.668 74.5527 99.5671 74.1003 99.3652 73.7617C99.1634 73.4167 98.8965 73.1139 98.5645 72.8535C98.2389 72.5866 97.8646 72.3457 97.4414 72.1309C97.0182 71.916 96.5853 71.7044 96.1426 71.4961C95.7064 71.2812 95.2767 71.0599 94.8535 70.832C94.4368 70.5977 94.0658 70.3307 93.7402 70.0312C93.0046 69.3542 92.6367 68.5306 92.6367 67.5605C92.6367 66.5775 92.972 65.7376 93.6426 65.041C94.3587 64.3118 95.2865 63.9082 96.4258 63.8301V64.6406C95.6185 64.7448 95.0749 65.1582 94.7949 65.8809C94.7038 66.1152 94.6582 66.4082 94.6582 66.7598C94.6582 67.1113 94.7624 67.4401 94.9707 67.7461C95.179 68.0521 95.4525 68.3255 95.791 68.5664C96.1296 68.8073 96.5137 69.0286 96.9434 69.2305C97.3796 69.4323 97.8223 69.6374 98.2715 69.8457C98.7272 70.054 99.1699 70.2786 99.5996 70.5195C100.036 70.7604 100.423 71.0404 100.762 71.3594C101.517 72.082 101.895 72.9544 101.895 73.9766C101.895 75.0833 101.494 76.0469 100.693 76.8672C99.8535 77.7396 98.7988 78.2148 97.5293 78.293V77.4727ZM106.436 69.5234V80.2754C106.449 80.5879 106.592 80.8125 106.865 80.9492C106.995 81.0078 107.139 81.0599 107.295 81.1055C107.451 81.1576 107.614 81.2227 107.783 81.3008V81.8184H103.125V81.3008C103.262 81.2227 103.402 81.1576 103.545 81.1055C103.695 81.0599 103.828 81.0078 103.945 80.9492C104.212 80.806 104.346 80.5814 104.346 80.2754V69.9238C104.346 69.5788 104.215 69.3411 103.955 69.2109C103.844 69.1523 103.714 69.1068 103.564 69.0742C103.421 69.0352 103.275 68.9766 103.125 68.8984V68.3027H106.367L106.436 69.5234ZM108.73 78.2637C108.171 78.2637 107.676 78.166 107.246 77.9707L107.256 77.1016C107.575 77.3164 107.91 77.4238 108.262 77.4238C108.62 77.4238 108.929 77.3424 109.189 77.1797C109.456 77.0104 109.681 76.7565 109.863 76.418C110.241 75.7083 110.43 74.6634 110.43 73.2832C110.43 71.1217 110.026 69.8034 109.219 69.3281C108.978 69.1914 108.747 69.123 108.525 69.123C108.311 69.123 108.138 69.1556 108.008 69.2207C107.884 69.2793 107.773 69.3542 107.676 69.4453C107.559 69.556 107.415 69.748 107.246 70.0215V68.6445C107.728 68.319 108.262 68.1562 108.848 68.1562C109.44 68.1562 109.974 68.2897 110.449 68.5566C110.924 68.8171 111.335 69.1784 111.68 69.6406C112.409 70.6042 112.773 71.7988 112.773 73.2246C112.773 74.7741 112.393 76.0078 111.631 76.9258C110.882 77.8177 109.915 78.2637 108.73 78.2637ZM119.131 73.0195C117.386 73.651 116.514 74.5723 116.514 75.7832C116.514 76.2715 116.631 76.6654 116.865 76.9648C117.1 77.2578 117.448 77.4043 117.91 77.4043C118.379 77.4043 118.786 77.2318 119.131 76.8867V77.8145C118.63 78.1139 118.063 78.2637 117.432 78.2637C116.8 78.2637 116.292 78.2018 115.908 78.0781C115.531 77.9544 115.212 77.7852 114.951 77.5703C114.411 77.1341 114.141 76.5579 114.141 75.8418C114.141 74.3639 115.452 73.2474 118.076 72.4922C118.447 72.3815 118.799 72.2839 119.131 72.1992V73.0195ZM116.816 69.5234C117.174 69.6602 117.354 69.9727 117.354 70.4609C117.354 70.7734 117.243 71.0241 117.021 71.2129C116.8 71.4017 116.501 71.4961 116.123 71.4961C115.752 71.4961 115.456 71.3952 115.234 71.1934C115.02 70.9915 114.912 70.7311 114.912 70.4121C114.912 70.0931 114.987 69.8066 115.137 69.5527C115.286 69.2988 115.498 69.0742 115.771 68.8789C116.338 68.4688 117.051 68.2311 117.91 68.166V68.9082C117.383 68.9603 117.018 69.1654 116.816 69.5234ZM122.627 77.0332C122.985 77.0332 123.213 76.7077 123.311 76.0566L123.809 76.3203C123.743 76.9518 123.568 77.4336 123.281 77.7656C123.001 78.0977 122.552 78.2637 121.934 78.2637C121.452 78.2637 121.094 78.1758 120.859 78C120.482 77.7135 120.176 77.2806 119.941 76.7012V70.6172C119.941 70.2135 119.834 69.8652 119.619 69.5723C119.411 69.2728 119.111 69.071 118.721 68.9668V68.166C120.928 68.2832 122.031 69.4486 122.031 71.6621V76.2812C122.031 76.7826 122.23 77.0332 122.627 77.0332ZM130.938 69.7383C130.755 69.2891 130.348 69.0319 129.717 68.9668V68.1758C130.583 68.2214 131.273 68.5078 131.787 69.0352C132.236 69.4844 132.461 70.002 132.461 70.5879C132.461 71.1868 132.23 71.5938 131.768 71.8086C131.611 71.8802 131.4 71.916 131.133 71.916C130.866 71.916 130.625 71.8184 130.41 71.623C130.202 71.4212 130.098 71.1901 130.098 70.9297C130.098 70.6693 130.127 70.4772 130.186 70.3535C130.244 70.2298 130.316 70.1289 130.4 70.0508C130.485 69.9727 130.576 69.9108 130.674 69.8652C130.771 69.8197 130.859 69.7773 130.938 69.7383ZM129.717 77.375C130.511 77.2578 131.097 76.7565 131.475 75.8711C131.585 75.6237 131.683 75.373 131.768 75.1191L132.578 75.3633C132.214 76.6198 131.618 77.4596 130.791 77.8828C130.485 78.0456 130.127 78.1562 129.717 78.2148V77.375ZM126.865 73.1953C126.865 75.7474 127.546 77.1406 128.906 77.375V78.2637C127.676 78.2376 126.65 77.7982 125.83 76.9453C124.964 76.0273 124.531 74.8132 124.531 73.3027C124.531 71.9681 124.935 70.8092 125.742 69.8262C126.576 68.8105 127.63 68.2572 128.906 68.166V69.0254C127.93 69.2533 127.298 70.0801 127.012 71.5059C126.914 71.9941 126.865 72.5573 126.865 73.1953ZM140.322 72.1797C140.322 70.3047 139.854 69.25 138.916 69.0156V68.1758C140.133 68.2865 141.071 68.7975 141.729 69.709C142.347 70.5618 142.656 71.6719 142.656 73.0391H137.129V72.1797H140.322ZM138.955 77.4043C140.088 77.3522 140.892 76.8184 141.367 75.8027C141.504 75.5098 141.621 75.2103 141.719 74.9043L142.559 75.2168C142.194 76.5775 141.449 77.4922 140.322 77.9609C139.925 78.1237 139.469 78.2214 138.955 78.2539V77.4043ZM136.309 72.5996C136.309 75.3991 136.921 76.9746 138.145 77.3262V78.2246C136.868 78.0814 135.856 77.5508 135.107 76.6328C134.359 75.7279 133.984 74.5918 133.984 73.2246C133.984 71.7858 134.359 70.6042 135.107 69.6797C135.863 68.7487 136.862 68.2441 138.105 68.166V68.9766C136.908 69.1198 136.309 70.3275 136.309 72.5996Z" fill="#F3F5FC"/>
</svg>
